<mxfile host="app.diagrams.net" modified="2023-04-08T13:02:43.788Z" agent="Mozilla/5.0 (Windows NT 10.0; Win64; x64) AppleWebKit/537.36 (KHTML, like Gecko) Chrome/112.0.0.0 Safari/537.36" etag="2Oe_B-YYWgPnOBSHY2Vi" version="21.1.2" type="device">
  <diagram name="Page-1" id="pPOIw61mS1DA53msOQhl">
    <mxGraphModel dx="1235" dy="568" grid="1" gridSize="10" guides="1" tooltips="1" connect="1" arrows="1" fold="1" page="1" pageScale="1" pageWidth="850" pageHeight="1100" math="0" shadow="0">
      <root>
        <mxCell id="0" />
        <mxCell id="1" parent="0" />
        <mxCell id="rfmVcZ7oA_knMViS2ZGQ-1" value="" style="ellipse;whiteSpace=wrap;html=1;" vertex="1" parent="1">
          <mxGeometry x="350" y="30" width="120" height="40" as="geometry" />
        </mxCell>
        <mxCell id="rfmVcZ7oA_knMViS2ZGQ-2" value="" style="rounded=0;whiteSpace=wrap;html=1;" vertex="1" parent="1">
          <mxGeometry x="350" y="160" width="120" height="30" as="geometry" />
        </mxCell>
        <mxCell id="rfmVcZ7oA_knMViS2ZGQ-3" value="" style="rounded=0;whiteSpace=wrap;html=1;" vertex="1" parent="1">
          <mxGeometry x="350" y="220" width="120" height="30" as="geometry" />
        </mxCell>
        <mxCell id="rfmVcZ7oA_knMViS2ZGQ-4" value="" style="rounded=0;whiteSpace=wrap;html=1;" vertex="1" parent="1">
          <mxGeometry x="350" y="300" width="120" height="30" as="geometry" />
        </mxCell>
        <mxCell id="rfmVcZ7oA_knMViS2ZGQ-5" value="" style="rounded=0;whiteSpace=wrap;html=1;" vertex="1" parent="1">
          <mxGeometry x="350" y="360" width="120" height="30" as="geometry" />
        </mxCell>
        <mxCell id="rfmVcZ7oA_knMViS2ZGQ-6" value="" style="rounded=0;whiteSpace=wrap;html=1;" vertex="1" parent="1">
          <mxGeometry x="350" y="420" width="120" height="30" as="geometry" />
        </mxCell>
        <mxCell id="rfmVcZ7oA_knMViS2ZGQ-7" value="" style="rounded=0;whiteSpace=wrap;html=1;" vertex="1" parent="1">
          <mxGeometry x="350" y="100" width="120" height="30" as="geometry" />
        </mxCell>
        <mxCell id="rfmVcZ7oA_knMViS2ZGQ-9" value="" style="ellipse;whiteSpace=wrap;html=1;" vertex="1" parent="1">
          <mxGeometry x="350" y="490" width="120" height="40" as="geometry" />
        </mxCell>
        <mxCell id="rfmVcZ7oA_knMViS2ZGQ-19" value="" style="edgeStyle=orthogonalEdgeStyle;rounded=0;orthogonalLoop=1;jettySize=auto;html=1;" edge="1" parent="1" source="rfmVcZ7oA_knMViS2ZGQ-10" target="rfmVcZ7oA_knMViS2ZGQ-16">
          <mxGeometry relative="1" as="geometry" />
        </mxCell>
        <mxCell id="rfmVcZ7oA_knMViS2ZGQ-10" value="Start" style="text;html=1;strokeColor=none;fillColor=none;align=center;verticalAlign=middle;whiteSpace=wrap;rounded=0;" vertex="1" parent="1">
          <mxGeometry x="380" y="35" width="60" height="30" as="geometry" />
        </mxCell>
        <mxCell id="rfmVcZ7oA_knMViS2ZGQ-11" value="A = #01H" style="text;html=1;strokeColor=none;fillColor=none;align=center;verticalAlign=middle;whiteSpace=wrap;rounded=0;" vertex="1" parent="1">
          <mxGeometry x="350" y="160" width="120" height="30" as="geometry" />
        </mxCell>
        <mxCell id="rfmVcZ7oA_knMViS2ZGQ-12" value="P2 = Data" style="text;html=1;strokeColor=none;fillColor=none;align=center;verticalAlign=middle;whiteSpace=wrap;rounded=0;" vertex="1" parent="1">
          <mxGeometry x="350" y="220" width="120" height="30" as="geometry" />
        </mxCell>
        <mxCell id="rfmVcZ7oA_knMViS2ZGQ-13" value="P3 = A" style="text;html=1;strokeColor=none;fillColor=none;align=center;verticalAlign=middle;whiteSpace=wrap;rounded=0;" vertex="1" parent="1">
          <mxGeometry x="350" y="300" width="120" height="30" as="geometry" />
        </mxCell>
        <mxCell id="rfmVcZ7oA_knMViS2ZGQ-14" value="Delay" style="text;html=1;strokeColor=none;fillColor=none;align=center;verticalAlign=middle;whiteSpace=wrap;rounded=0;" vertex="1" parent="1">
          <mxGeometry x="350" y="360" width="120" height="30" as="geometry" />
        </mxCell>
        <mxCell id="rfmVcZ7oA_knMViS2ZGQ-15" value="RR A" style="text;html=1;strokeColor=none;fillColor=none;align=center;verticalAlign=middle;whiteSpace=wrap;rounded=0;" vertex="1" parent="1">
          <mxGeometry x="350" y="420" width="120" height="30" as="geometry" />
        </mxCell>
        <mxCell id="rfmVcZ7oA_knMViS2ZGQ-16" value="P3 = #0" style="text;html=1;strokeColor=none;fillColor=none;align=center;verticalAlign=middle;whiteSpace=wrap;rounded=0;" vertex="1" parent="1">
          <mxGeometry x="350" y="100" width="120" height="30" as="geometry" />
        </mxCell>
        <mxCell id="rfmVcZ7oA_knMViS2ZGQ-18" value="End" style="text;html=1;strokeColor=none;fillColor=none;align=center;verticalAlign=middle;whiteSpace=wrap;rounded=0;" vertex="1" parent="1">
          <mxGeometry x="380" y="495" width="60" height="30" as="geometry" />
        </mxCell>
        <mxCell id="rfmVcZ7oA_knMViS2ZGQ-22" value="" style="endArrow=classic;html=1;rounded=0;" edge="1" parent="1">
          <mxGeometry width="50" height="50" relative="1" as="geometry">
            <mxPoint x="409.5" y="130" as="sourcePoint" />
            <mxPoint x="409.5" y="165.5" as="targetPoint" />
          </mxGeometry>
        </mxCell>
        <mxCell id="rfmVcZ7oA_knMViS2ZGQ-24" value="" style="endArrow=classic;html=1;rounded=0;" edge="1" parent="1">
          <mxGeometry width="50" height="50" relative="1" as="geometry">
            <mxPoint x="409.5" y="184.5" as="sourcePoint" />
            <mxPoint x="409.5" y="220" as="targetPoint" />
          </mxGeometry>
        </mxCell>
        <mxCell id="rfmVcZ7oA_knMViS2ZGQ-25" value="" style="endArrow=classic;html=1;rounded=0;" edge="1" parent="1">
          <mxGeometry width="50" height="50" relative="1" as="geometry">
            <mxPoint x="409.5" y="330" as="sourcePoint" />
            <mxPoint x="409.5" y="365.5" as="targetPoint" />
          </mxGeometry>
        </mxCell>
        <mxCell id="rfmVcZ7oA_knMViS2ZGQ-27" value="" style="endArrow=classic;html=1;rounded=0;" edge="1" parent="1">
          <mxGeometry width="50" height="50" relative="1" as="geometry">
            <mxPoint x="409.5" y="384.5" as="sourcePoint" />
            <mxPoint x="409.5" y="420" as="targetPoint" />
          </mxGeometry>
        </mxCell>
        <mxCell id="rfmVcZ7oA_knMViS2ZGQ-28" value="" style="endArrow=classic;html=1;rounded=0;entryX=0.5;entryY=0;entryDx=0;entryDy=0;" edge="1" parent="1" target="rfmVcZ7oA_knMViS2ZGQ-13">
          <mxGeometry width="50" height="50" relative="1" as="geometry">
            <mxPoint x="409.5" y="250" as="sourcePoint" />
            <mxPoint x="409.5" y="285.5" as="targetPoint" />
          </mxGeometry>
        </mxCell>
        <mxCell id="rfmVcZ7oA_knMViS2ZGQ-29" value="" style="endArrow=classic;html=1;rounded=0;" edge="1" parent="1">
          <mxGeometry width="50" height="50" relative="1" as="geometry">
            <mxPoint x="409.5" y="454.5" as="sourcePoint" />
            <mxPoint x="409.5" y="490" as="targetPoint" />
          </mxGeometry>
        </mxCell>
        <mxCell id="rfmVcZ7oA_knMViS2ZGQ-31" value="" style="endArrow=classic;html=1;rounded=0;" edge="1" parent="1">
          <mxGeometry width="50" height="50" relative="1" as="geometry">
            <mxPoint x="410" y="470" as="sourcePoint" />
            <mxPoint x="410" y="270" as="targetPoint" />
            <Array as="points">
              <mxPoint x="280" y="470" />
              <mxPoint x="280" y="370" />
              <mxPoint x="280" y="270" />
            </Array>
          </mxGeometry>
        </mxCell>
      </root>
    </mxGraphModel>
  </diagram>
</mxfile>
